<svg width="136" height="136" viewBox="0 0 136 136" fill="none" xmlns="http://www.w3.org/2000/svg">
<path d="M68 18L79.2257 52.5491H115.553L86.1636 73.9017L97.3893 108.451L68 87.0983L38.6107 108.451L49.8364 73.9017L20.4472 52.5491H56.7743L68 18Z" fill="#F7A321"/>
<path d="M118 68L83.4509 79.2257V115.553L62.0983 86.1636L27.5491 97.3893L48.9017 68L27.5491 38.6107L62.0983 49.8364L83.4509 20.4472V56.7743L118 68Z" fill="#F7A321"/>
<path d="M112.147 91.4735L76.3721 85.1654L59.3175 117.24L54.2618 81.2667L18.4865 74.9586L51.1372 59.0338L46.0814 23.0602L71.3163 49.1918L103.967 33.267L86.9124 65.3419L112.147 91.4735Z" fill="#F7A321"/>
</svg>
